<svg version="1.0" xmlns="http://www.w3.org/2000/svg" xmlns:xlink="http://www.w3.org/1999/xlink"
     width="250px" height="100px" viewBox="0 0 170 10">

    <g fill="#fff" transform="translate(0,-10)">
        <g fill="#fff">
            <g>
                <g transform="scale(1)">
                    <path d="M26.78-27.19L23.70-27.19L23.70-4.31L6.90-27.19L3.33-27.19L3.33 0L6.41 0L6.41-22.96L23.20 0L26.78 0Z"
                          transform="translate(-3, 28)"/>
                </g>
            </g>
            <g transform="translate(27, 0)">
                <g transform="scale(1)">
                    <path d="M2.67-20.53L2.67 0L5.75 0L5.75-20.53ZM5.87-28.01L2.55-28.01L2.55-23.98L5.87-23.98Z"
                          transform="translate(-2.5462012320328546, 28.74743326488706)"/>
                </g>
            </g>
            <g transform="translate(34, 0)">
                <g transform="scale(1)">
                    <path d="M11.95-18.07C15.47-18.07 17.70-15.48 17.70-11.87L17.70 0L20.78 0L20.78-11.95C20.78-14.69 19.93-16.89 18.23-18.56C16.80-20.05 14.96-20.86 12.11-20.86C9.16-20.86 7.07-19.10 5.75-17.33L5.75-20.53L2.67-20.53L2.67 0L5.75 0L5.75-11.83C5.75-15.40 8.42-18.07 11.95-18.07Z"
                          transform="translate(-2.6694045174537986, 28.74743326488706)"/>
                </g>
            </g>
            <g transform="translate(56, 0)">
                <g transform="scale(1)">
                    <path d="M21.15-5.91L17.78-5.91C16.58-3.61 14.59-2.46 11.83-2.46C7.75-2.46 4.99-5.33 4.56-9.03L21.77-9.03L21.77-10.27C21.77-16.40 17.63-20.86 11.58-20.86C5.53-20.86 1.40-16.40 1.40-10.27C1.40-4.18 5.72 0.33 11.79 0.33C16.75 0.33 19.76-2.29 21.15-5.91ZM18.56-11.91L4.60-11.91C5.13-15.40 7.70-18.07 11.58-18.07C15.46-18.07 18.03-15.40 18.56-11.91Z"
                          transform="translate(-1.3963039014373715, 28.74743326488706)"/>
                </g>
            </g>
            <g transform="translate(80, 0)">
                <g transform="scale(1)">
                    <path d="M14.78-27.19L3.33-27.19L3.33 0L14.78 0C16.40 0 17.96-0.31 19.47-0.92C24.14-2.84 27.27-7.67 27.27-13.59C27.27-17.65 26.00-20.97 23.45-23.57C21.46-25.61 18.50-27.19 14.78-27.19ZM24.19-13.59C24.19-7.75 20.38-2.92 14.66-2.92L6.41-2.92L6.41-24.27L14.66-24.27C20.38-24.27 24.19-19.44 24.19-13.59Z"
                          transform="translate(-3.3264887063655033, 28.74743326488706)"/>
                </g>
            </g>
            <g transform="translate(107, 2.020542821935532)">
                <g >
                    <g class="imagesvg">
                        <g >
                            <rect fill-opacity="0" stroke-width="2" x="0" y="0" width="20.61698272738253"
                                  height="25.03488971547185" class="image-rect"/>
                            <g fill="#fff" transform="scale(0.166)" id="387d048b-2a9b-4730-af0a-dbd98ca41c34">
                                <g id="d40e95fd-8ede-4922-a2d8-ce2724a019bf">
                                    <path d="M63,153c34.95,0,63-36,63-80.43V0H0V72.57C0,117,29.08,153,63,153Z"/>
                                </g>
                            </g>
                            <defs>
                                <filter id="colors2205905320">
                                    <feColorMatrix type="matrix" values="0 0 0 0 0.19921875  0 0 0 0 0.19921875  0 0 0 0 0.19921875  0 0 0 1 0"/>
                                </filter>
                                <filter id="colorsf5597003395">
                                    <feColorMatrix type="matrix" values="0 0 0 0 0.99609375  0 0 0 0 0.99609375  0 0 0 0 0.99609375  0 0 0 1 0"/>
                                </filter>
                                <filter id="colorsb2514784295">
                                    <feColorMatrix type="matrix" values="0 0 0 0 0  0 0 0 0 0  0 0 0 0 0  0 0 0 1 0"/>
                                </filter>
                            </defs>
                        </g>
                    </g>
                </g>
            </g>
            <g transform="translate(131, 0)">
                <g fill="#fff" transform="scale(1)">
                    <path d="M23.04-10.27C23.04-16.17 18.99-20.86 13.10-20.86C9.87-20.86 7.42-19.64 5.75-17.21L5.75-28.75L2.67-28.75L2.67 0L5.75 0L5.75-3.29C7.39-0.88 9.77 0.33 12.87 0.33C18.95 0.33 23.04-4.25 23.04-10.27ZM12.69-2.46C8.31-2.46 5.59-5.83 5.59-10.27C5.59-14.70 8.31-18.07 12.69-18.07C17.03-18.07 19.96-14.70 19.96-10.27C19.96-5.83 17.03-2.46 12.69-2.46Z"
                          transform="translate(-2.6694045174537986, 28.74743326488706)"/>
                </g>
            </g>
            <g transform="translate(155, 0)">
                <g fill="#fff" transform="scale(1)">
                    <path d="M17.45-2.87L5.13-2.87L17.45-17.66L17.45-20.53L1.44-20.53L1.44-17.70L13.55-17.70L1.27-2.92L1.27 0L17.45 0Z"
                          transform="translate(-1.2731006160164275, 28.74743326488706)"/>
                </g>
            </g>
        </g>
    </g>
</svg>